<svg xmlns="http://www.w3.org/2000/svg" viewBox="0 0 64 64">
  <!-- Background: Indigo Squircle -->
  <rect width="64" height="64" rx="16" fill="#4F46E5" />
  
  <!-- Book Container -->
  <g transform="translate(10, 14)">
    <!-- Left Page -->
    <path d="M0 2 C0 0.9 0.9 0 2 0 H21 V34 H2 C0.9 34 0 33.1 0 32 V2 Z" fill="#FFFFFF" />
    
    <!-- Right Page -->
    <path d="M23 0 H42 C43.1 0 44 0.9 44 2 V32 C44 33.1 43.1 34 42 34 H23 V0 Z" fill="#F3F4F6" />
    
    <!-- Spine Shadow -->
    <rect x="21" y="0" width="2" height="34" fill="#D1D5DB" opacity="0.5" />
    
    <!-- Left Page Content: Note Lines -->
    <rect x="6" y="8" width="12" height="2" rx="1" fill="#4F46E5" opacity="0.4" />
    <rect x="6" y="14" width="12" height="2" rx="1" fill="#4F46E5" opacity="0.4" />
    <rect x="6" y="20" width="8" height="2" rx="1" fill="#4F46E5" opacity="0.4" />
    
    <!-- Right Page Content: Emerald Spark (AI) -->
    <path d="M33.5 7 L35.5 12 L40.5 14 L35.5 16 L33.5 21 L31.5 16 L26.5 14 L31.5 12 Z" fill="#10B981" />
  </g>
</svg>